<?xml version="1.0" encoding="UTF-8"?>
<svg id="Layer_1" data-name="Layer 1" xmlns="http://www.w3.org/2000/svg" xmlns:xlink="http://www.w3.org/1999/xlink" viewBox="0 0 595.28 841.89">
  <defs>
    <style>
      .cls-1 {
        fill: url(#linear-gradient-2);
      }

      .cls-2 {
        fill: #103a5f;
      }

      .cls-3 {
        fill: #0a3e60;
      }

      .cls-4 {
        fill: #119dd9;
      }

      .cls-5 {
        fill: url(#linear-gradient-3);
      }

      .cls-6 {
        fill: url(#linear-gradient);
      }

      .cls-7 {
        fill: url(#linear-gradient-4);
      }
    </style>
    <linearGradient id="linear-gradient" x1="225.84" y1="363.07" x2="369.44" y2="363.07" gradientUnits="userSpaceOnUse">
      <stop offset="0" stop-color="#119dd9"/>
      <stop offset="1" stop-color="#0c3d60"/>
    </linearGradient>
    <linearGradient id="linear-gradient-2" x1="322.77" y1="370.63" x2="347" y2="370.63" xlink:href="#linear-gradient"/>
    <linearGradient id="linear-gradient-3" x1="295.19" y1="393.15" x2="309.12" y2="393.15" xlink:href="#linear-gradient"/>
    <linearGradient id="linear-gradient-4" x1="274.34" y1="379.86" x2="294.36" y2="379.86" xlink:href="#linear-gradient"/>
  </defs>
  <g>
    <path class="cls-2" d="M93.5,542.23h4.6v.32h-2.08v5.28h-.46v-5.28h-2.06v-.32Z"/>
    <path class="cls-2" d="M113.07,542.23h1.71c.65,0,1.21,.18,1.67,.54,.46,.36,.69,.79,.69,1.29,0,.38-.15,.74-.44,1.05-.29,.32-.67,.54-1.14,.66l1.24,2-.41,.13-1.29-2.04c-.1,.01-.21,.02-.32,.02h-1.25v1.96h-.46v-5.6Zm.46,.32v3h1.25c.52,0,.97-.15,1.34-.44,.37-.29,.56-.65,.56-1.07s-.19-.77-.56-1.06c-.37-.29-.82-.43-1.34-.43h-1.25Z"/>
    <path class="cls-2" d="M134.22,542.23h.44l2.25,5.57-.44,.09-.69-1.69h-2.68l-.69,1.69-.44-.09,2.25-5.57Zm.23,.63l-1.22,3.01h2.43l-1.21-3.01Z"/>
    <path class="cls-2" d="M151.9,542.23h.46l3.75,4.99v-4.99h.46v5.6h-.46l-3.75-4.99v4.99h-.46v-5.6Z"/>
    <path class="cls-2" d="M174.16,542.08c.44,0,.88,.12,1.32,.36l-.29,.26c-.46-.26-.9-.35-1.31-.27-.38,.06-.67,.24-.87,.54-.2,.29-.23,.58-.08,.87,.17,.34,.56,.58,1.16,.74,1.01,.28,1.66,.68,1.96,1.2,.28,.47,.22,.93-.15,1.38-.24,.28-.56,.49-.99,.64-.42,.15-.92,.2-1.5,.15-.58-.05-1.14-.21-1.71-.5l.28-.26c.51,.26,1.01,.41,1.5,.45,.49,.04,.9,0,1.23-.12,.33-.12,.59-.3,.79-.52,.31-.36,.35-.72,.12-1.1-.25-.43-.81-.77-1.68-1.02-.73-.19-1.21-.5-1.44-.93-.2-.37-.18-.74,.08-1.12,.26-.37,.65-.61,1.17-.7,.14-.03,.28-.04,.41-.04Z"/>
    <path class="cls-2" d="M191.34,542.23h1.71c.65,0,1.21,.18,1.67,.54,.46,.36,.69,.79,.69,1.29s-.23,.93-.69,1.28c-.46,.36-1.01,.54-1.67,.54h-1.25v1.96h-.46v-5.6Zm.46,.32v3h1.25c.52,0,.97-.15,1.34-.44,.37-.29,.56-.65,.56-1.07s-.19-.77-.56-1.06c-.37-.29-.82-.43-1.34-.43h-1.25Z"/>
    <path class="cls-2" d="M211.51,542.95c.74-.58,1.64-.87,2.7-.87s1.96,.29,2.7,.87c.74,.58,1.12,1.27,1.12,2.08s-.37,1.5-1.12,2.08-1.64,.87-2.7,.87-1.96-.29-2.7-.87-1.12-1.27-1.12-2.08,.37-1.5,1.12-2.08Zm5.07,.22c-.66-.51-1.45-.77-2.37-.77s-1.71,.26-2.37,.77c-.66,.51-.99,1.13-.99,1.86s.33,1.35,.99,1.86c.66,.51,1.45,.77,2.37,.77s1.71-.25,2.37-.77c.66-.51,.99-1.13,.99-1.86s-.33-1.35-.99-1.86Z"/>
    <path class="cls-2" d="M233.15,542.23h1.71c.65,0,1.21,.18,1.67,.54,.46,.36,.69,.79,.69,1.29,0,.38-.15,.74-.44,1.05-.29,.32-.67,.54-1.14,.66l1.24,2-.41,.13-1.29-2.04c-.1,.01-.21,.02-.32,.02h-1.25v1.96h-.46v-5.6Zm.46,.32v3h1.25c.52,0,.97-.15,1.34-.44,.37-.29,.56-.65,.56-1.07s-.19-.77-.56-1.06c-.37-.29-.82-.43-1.34-.43h-1.25Z"/>
    <path class="cls-2" d="M252.05,542.23h4.6v.32h-2.08v5.28h-.46v-5.28h-2.06v-.32Z"/>
    <path class="cls-2" d="M272.5,542.23h.44l2.25,5.57-.44,.09-.69-1.69h-2.68l-.69,1.69-.44-.09,2.25-5.57Zm.23,.63l-1.22,3.01h2.43l-1.21-3.01Z"/>
    <path class="cls-2" d="M288.8,542.23h4.6v.32h-2.08v5.28h-.46v-5.28h-2.06v-.32Z"/>
    <path class="cls-2" d="M308.37,542.23h.46v5.6h-.46v-5.6Z"/>
    <path class="cls-2" d="M325.09,542.95c.74-.58,1.64-.87,2.7-.87s1.96,.29,2.7,.87c.74,.58,1.12,1.27,1.12,2.08s-.37,1.5-1.12,2.08-1.64,.87-2.7,.87-1.96-.29-2.7-.87-1.12-1.27-1.12-2.08,.37-1.5,1.12-2.08Zm5.07,.22c-.66-.51-1.45-.77-2.37-.77s-1.71,.26-2.37,.77c-.66,.51-.99,1.13-.99,1.86s.33,1.35,.99,1.86c.66,.51,1.45,.77,2.37,.77s1.71-.25,2.37-.77c.66-.51,.99-1.13,.99-1.86s-.33-1.35-.99-1.86Z"/>
    <path class="cls-2" d="M346.73,542.23h.46l3.75,4.99v-4.99h.46v5.6h-.46l-3.75-4.99v4.99h-.46v-5.6Z"/>
    <path class="cls-2" d="M386.27,542.08c.44,0,.88,.12,1.32,.36l-.29,.26c-.46-.26-.9-.35-1.31-.27-.38,.06-.67,.24-.87,.54-.2,.29-.23,.58-.08,.87,.17,.34,.56,.58,1.16,.74,1.01,.28,1.66,.68,1.96,1.2,.28,.47,.22,.93-.15,1.38-.24,.28-.56,.49-.99,.64-.42,.15-.92,.2-1.5,.15-.58-.05-1.14-.21-1.71-.5l.28-.26c.51,.26,1.01,.41,1.5,.45,.49,.04,.9,0,1.23-.12,.33-.12,.59-.3,.79-.52,.31-.36,.35-.72,.12-1.1-.25-.43-.81-.77-1.68-1.02-.73-.19-1.21-.5-1.44-.93-.2-.37-.18-.74,.08-1.12,.26-.37,.65-.61,1.17-.7,.14-.03,.28-.04,.41-.04Z"/>
    <path class="cls-2" d="M403.45,542.23h3.61v.32h-3.15v2.26h1.5v.32h-1.5v2.38h3.01v.32h-3.47v-5.6Z"/>
    <path class="cls-2" d="M422.09,542.23h1.71c.65,0,1.21,.18,1.67,.54,.46,.36,.69,.79,.69,1.29,0,.38-.15,.74-.44,1.05-.29,.32-.67,.54-1.14,.66l1.24,2-.41,.13-1.29-2.04c-.1,.01-.21,.02-.32,.02h-1.25v1.96h-.46v-5.6Zm.46,.32v3h1.25c.52,0,.97-.15,1.34-.44,.37-.29,.56-.65,.56-1.07s-.19-.77-.56-1.06c-.37-.29-.82-.43-1.34-.43h-1.25Z"/>
    <path class="cls-2" d="M441.44,542.18l2.03,5.02,2.02-5.02,.44,.09-2.25,5.57h-.44l-2.25-5.57,.44-.09Z"/>
    <path class="cls-2" d="M460.92,542.23h.46v5.6h-.46v-5.6Z"/>
    <path class="cls-2" d="M480.32,542.08c1.06,0,1.96,.29,2.71,.87l-.34,.21c-.65-.51-1.44-.76-2.37-.76s-1.71,.26-2.36,.77c-.66,.51-.99,1.13-.99,1.86s.33,1.35,.99,1.86c.66,.51,1.45,.77,2.36,.77s1.72-.25,2.37-.76l.34,.21c-.74,.58-1.65,.87-2.71,.87s-1.95-.29-2.69-.87-1.12-1.27-1.12-2.08,.37-1.5,1.12-2.08c.74-.58,1.64-.87,2.69-.87Z"/>
    <path class="cls-2" d="M498.17,542.23h3.61v.32h-3.15v2.26h1.5v.32h-1.5v2.38h3.01v.32h-3.47v-5.6Z"/>
  </g>
  <g>
    <g>
      <path class="cls-3" d="M87.07,498.36v10.37H52.68v-53.37h11.97l-.07,43h22.49Z"/>
      <path class="cls-3" d="M94,455.36h11.97v53.37h-11.97v-53.37Z"/>
      <path class="cls-3" d="M115.2,455.36h13.8l19.52,35.15h.23v-35.15h11.74v53.45h-13.95l-19.37-33.85h-.23v33.85h-11.74v-53.45Z"/>
      <path class="cls-3" d="M183.44,482.04l-17.16-26.68h12.96l11.06,18.3h.45l11.21-18.3h12.89l-17.31,26.68,17.38,26.68h-12.96l-11.21-18.37h-.45l-11.06,18.37h-13.04l17.23-26.68Z"/>
    </g>
    <g>
      <path class="cls-4" d="M236.49,461.61v17.54h23.1v5.34h-23.1v18.6h26.23v5.95h-32.86v-53.37h32.86v5.95h-26.23Z"/>
      <path class="cls-4" d="M288.33,482.35l-17.69-26.68h7.32l14.56,22.03h.46l14.41-22.03h7.4l-17.69,26.68,17.69,26.68h-7.4l-14.41-22.03h-.46l-14.56,22.03h-7.4l17.77-26.68Z"/>
      <path class="cls-4" d="M352.18,458.26c2.77,1.73,4.76,3.91,5.98,6.56,1.22,2.64,1.83,5.44,1.83,8.39s-.61,5.73-1.83,8.35c-1.22,2.62-3.2,4.78-5.95,6.48s-6.3,2.55-10.67,2.55h-11.74v18.45h-6.4v-53.37h18.15c4.32,0,7.86,.87,10.64,2.59Zm-2.29,23.98c2.46-1.75,3.7-4.76,3.7-9.03s-1.23-7.21-3.7-8.96c-2.47-1.75-5.53-2.63-9.19-2.63h-10.9v23.25h10.9c3.66,0,6.72-.88,9.19-2.63Z"/>
      <path class="cls-4" d="M385.39,487.76h-9.53v21.27h-6.56v-53.37h18.15c4.32,0,7.86,.79,10.64,2.36,2.77,1.58,4.76,3.58,5.98,6.02,1.22,2.44,1.83,5.01,1.83,7.7,0,3.71-1.11,7.04-3.32,9.99-2.21,2.95-5.66,4.83-10.33,5.64l14.11,21.65h-7.25l-13.72-21.27Zm-9.53-5.64h10.75c3.61,0,6.66-.79,9.15-2.36s3.74-4.24,3.74-8.01-1.25-6.33-3.74-7.85-5.54-2.29-9.15-2.29h-10.75v20.51Z"/>
      <path class="cls-4" d="M423.36,461.61v17.54h23.1v5.34h-23.1v18.6h26.23v5.95h-32.86v-53.37h32.86v5.95h-26.23Z"/>
      <path class="cls-4" d="M467.16,507.09c-2.92-1.7-5.12-3.9-6.59-6.59-1.48-2.69-2.21-5.51-2.21-8.46v-.38h7.24v.38c0,1.78,.42,3.56,1.26,5.34,.84,1.78,2.17,3.27,4,4.46s4.17,1.79,7.02,1.79c3.35,0,6.12-.86,8.31-2.59s3.28-4.07,3.28-7.02c0-2.44-.8-4.38-2.4-5.83-1.6-1.45-3.65-2.43-6.14-2.94l-7.78-1.45c-8.95-1.98-13.42-6.68-13.42-14.11,0-3.05,.74-5.72,2.21-8,1.48-2.29,3.52-4.05,6.14-5.3,2.62-1.24,5.65-1.87,9.11-1.87,3.91,0,7.27,.79,10.06,2.36,2.79,1.58,4.91,3.62,6.33,6.14s2.13,5.12,2.13,7.81v.31h-7.24v-.23c0-1.52-.37-3.09-1.1-4.69-.74-1.6-1.96-2.98-3.66-4.15-1.7-1.17-3.95-1.75-6.75-1.75-3.2,0-5.75,.89-7.66,2.67-1.91,1.78-2.86,3.99-2.86,6.63,0,2.24,.73,4.07,2.21,5.49,1.47,1.42,3.48,2.39,6.02,2.9l7.02,1.37c9.81,1.98,14.71,6.78,14.71,14.41,0,3.1-.77,5.85-2.32,8.24s-3.75,4.26-6.59,5.6c-2.85,1.35-6.1,2.02-9.76,2.02-4.12,0-7.64-.85-10.56-2.55Z"/>
      <path class="cls-4" d="M513.36,507.09c-2.92-1.7-5.12-3.9-6.59-6.59-1.48-2.69-2.21-5.51-2.21-8.46v-.38h7.24v.38c0,1.78,.42,3.56,1.26,5.34,.84,1.78,2.17,3.27,4,4.46,1.83,1.19,4.17,1.79,7.02,1.79,3.35,0,6.12-.86,8.31-2.59s3.28-4.07,3.28-7.02c0-2.44-.8-4.38-2.4-5.83-1.6-1.45-3.65-2.43-6.14-2.94l-7.78-1.45c-8.95-1.98-13.42-6.68-13.42-14.11,0-3.05,.74-5.72,2.21-8,1.48-2.29,3.52-4.05,6.14-5.3,2.62-1.24,5.65-1.87,9.11-1.87,3.91,0,7.27,.79,10.06,2.36,2.79,1.58,4.91,3.62,6.33,6.14s2.13,5.12,2.13,7.81v.31h-7.24v-.23c0-1.52-.37-3.09-1.1-4.69-.74-1.6-1.96-2.98-3.66-4.15-1.7-1.17-3.95-1.75-6.75-1.75-3.2,0-5.75,.89-7.66,2.67-1.91,1.78-2.86,3.99-2.86,6.63,0,2.24,.73,4.07,2.21,5.49,1.47,1.42,3.48,2.39,6.02,2.9l7.02,1.37c9.81,1.98,14.71,6.78,14.71,14.41,0,3.1-.77,5.85-2.32,8.24s-3.75,4.26-6.59,5.6c-2.85,1.35-6.1,2.02-9.76,2.02-4.12,0-7.64-.85-10.56-2.55Z"/>
    </g>
  </g>
  <g>
    <path class="cls-6" d="M368.44,389.67c.05-.41,.06-.83,.02-1.25-.83-6.09-5.6-10.55-9.63-14.58-2.21-1.94-4.59-4.23-5.31-7.15-.21-.88-.13-1.9-.2-2.94-.13-2.47-.47-4.92-1.17-7.29-1.01-2.52-2.93-4.25-4.77-5.95-4.65-4.08-9.77-7.32-15.05-10.44-.77-1.07-1.51-2.14-2.19-3.24-.45-2.31-.47-4.12,.36-6.93-.22-1.73-.34-3.48-.3-5.26,0,0,0,0,0,0,.03-1.48,0-2.95,0-4.42-.06-.36-.06-.71,0-1.02,.03-3.37,.24-6.72,1.43-10.03,1.9-5.28,2.55-10.81,1.56-16.41-.06-.37,.08-.96-.73-1.09-.04,2.16-.08,4.23-.12,6.31-.29,.59-.24,1.2-.19,1.83,0,.19-.01,.38-.01,.56-.06-.18-.02-.36-.03-.53-.01-.65-.05-1.28-.49-1.78-.72-.56-.79-.02-.84,.59-.1,1.46-.22,2.93-.32,4.39-.04,.62-.13,1.14-.83,.55-.08-.28-.25-.39-.51-.33-.1,1.08-.17,2.16-.29,3.23-.27,2.25-.19,4.47-1.52,6.6-3.18,5.07-5.85,10.35-7.73,15.94-.19-.9-.32-1.81-.34-2.73-.27-1.79-.41-3.6-.37-5.44,0,0,0,0,0,0,.02-1.31,0-2.62,0-3.92-.05-.32-.05-.63,0-.91,.02-2.99,.21-5.95,1.27-8.89,1.68-4.68,2.26-9.58,1.38-14.54-.06-.33,.07-.85-.65-.97-.04,1.92-.07,3.75-.11,5.59-.25,.52-.21,1.07-.17,1.62,0,.17,0,.33,0,.5-.05-.16-.02-.32-.02-.47-.01-.57-.05-1.14-.44-1.58-.63-.5-.7-.02-.74,.52-.09,1.3-.19,2.59-.29,3.89-.04,.55-.11,1.01-.73,.49-.07-.25-.22-.34-.45-.3-.08,.96-.15,1.91-.26,2.87-.24,2-.17,3.96-1.35,5.85-3.92,6.26-6.97,12.89-8.49,20.13-25.5-8.42-56.86-2.12-81.58,11.83-.1,.82-.26,1.62-.41,2.43,.21-.11,.44-.2,.64-.32,12.09-7.18,25.38-12.46,39.28-14.85,13.86-2.36,28.37-2.53,42.06,.91-.45,2.17-.77,4.38-.93,6.66-.03,.4-.16,.73-.33,1.05,0,0-9.62,8.57-13.62,10.09-3.99,1.52-4.89,.93-3.17,1.98,1.72,1.05,7.09-.48,9.25,4.13,2.15,4.61,4.03,6.47,4.03,6.47,0,0,2.09-15.51,5.72-25.05,1.59-4.12,3.75-10.18,5.43-13.81,.16-.35,.25-.81,.87-.82,.44,4.19,1.79,8.04,3.23,11.85-.83,3.23-1.39,6.56-1.62,10.02-.03,.45-.19,.83-.37,1.19,.03,.24,.05,.48,.08,.72,1.15-.18,2.25-.16,3.26,.13,.62-6.55,2.41-12.91,5.29-19.11,.18-.39,.29-.92,.99-.92,.04,.37,.09,.74,.14,1.09,0-.04-.02-.08-.02-.12-.04,5.37,2.31,10.52,5.02,15.06,4.96,3.52,9.86,7.32,14.1,11.51,1.38,1.44,2.88,3.01,3.5,4.78,.57,2.87,.61,5.6,.56,8.56,.15,3.57,2.28,6.91,4.68,9.4,1.28,1.29,2.6,2.65,3.85,4.05,1.21,3.19,2.93,6.19,5.45,8.93,0,.07,.02,.13,.03,.2,.01,.42-.06,.68-.16,.87-.4,.77-.86,1.52-1.35,2.23-3.23,.45-5.6-.1-9.27-1.82,.98,2.92,2.24,5.54,4.19,7.71-1.08,1.63-1.99,3.36-2.56,5.28-.19,.39-.33,.63-.47,.98,0,0,0,0-.01,.02-.35,.45-.87,.91-1.41,1.34-3.19,1.96-7.17,2.78-11.69,.65-6.67-3.14-13.76-3.98-21.01-1.89-.23,.66,.32,.72,.71,.9,8.33,.37,15.76,3.75,23.52,6.84,0,0,0,0-.01,.01,.16,.04,.33,.07,.49,.13,.9,.32,1.9,.55,2.91,.78,.04,0,.09,.02,.13,.02-.99,3.88-2.72,7.81-5.89,8.85-.06-.07-.12-.12-.12-.13-8.25-8.17-26.08-13.2-36.2-6.18l-.31,.24-.21,.34s-.3,.49-.6,.97c-4.83-.15-9.67,.02-14.46,.61-15.72,1.88-30.87,7.87-43.74,17,9.17-4.82,18.87-8.6,28.96-10.82,10.42-2.29,21.17-2.96,31.76-1.84,.36-.54,1.34-1.99,1.91-2.83,.07-.04,.15-.09,.22-.12,7.5-3.64,16.61-.82,23.6,2.85,1.86,1.05,3.59,2.33,4.95,3.74,.92,1.15,2.26,2.03,3.77,2.04,7.71-.57,11.03-8.52,12.35-15.26,1.46-.75,2.74-1.94,3.92-3.36,1.75-2.11,3.07-4.48,4.28-6.92,.42-.85,.66-1.74,1.75-2.16,2.16-.84,3.5-2.67,4.92-4.42,1.58-1.95,1.82-3.54,.33-5.73Z"/>
    <path class="cls-1" d="M339.62,375.53c.02,.06,.07,.12,.11,.17,.78,1.01,1.34,2.7,2.59,2.63,1.1-.06,.96-1.91,1.6-3.01,.95,1.22,1.85,2.38,3.09,3.95-.41-2.72-1.57-4.62-2.28-6.66-.89-2.53-2.12-4.16-5.26-4.65-5.07-.8-9.68-3.32-14.39-5.36-.63-.27-1.21-.91-2.3-.48,2.95,2.27,5.85,4.35,9.03,5.84,3.54,1.66,6.74,3.45,7.81,7.57Z"/>
    <path class="cls-5" d="M295.92,397.09c1.38-.87,2.07-2.7,3.74-3.47-2.18,5.61-3.48,11.16-4.45,16.85-.09,.42,.04,.53,.33,.44,3.22-7.5,8.29-12.29,13.57-16.83-3.4,.05-6.11,2.4-8.98,5.16,1.6-5.57,3.57-10.5,5.44-15.48-.11-.12-.21-.24-.32-.37-1.81,1.97-3.63,3.94-5.77,6.27,1.91-5.33,4.02-9.73,5.91-14.3-4.98,5.76-8.3,12.78-9.48,21.73Z"/>
    <path class="cls-7" d="M274.64,395.45c5.25-6.25,11.5-9.36,17.86-12.19-3.27-.93-6.54,.53-10.09,2.34,3.14-4.87,6.45-9.02,9.69-13.24-.07-.15-.13-.3-.2-.44-2.31,1.36-4.61,2.72-7.34,4.33,3.37-4.55,6.66-8.15,9.79-11.97-6.43,4.07-11.65,9.83-15.36,18.05,1.58-.44,2.76-1.98,4.59-2.24-3.71,4.74-6.56,9.68-9.13,14.85-.21,.37-.12,.52,.19,.51Z"/>
  </g>
</svg>