<!--?xml version="1.0" standalone="no"?-->
              <svg id="sw-js-blob-svg" viewBox="0 0 100 100" xmlns="http://www.w3.org/2000/svg" version="1.1">
                    <defs> 
                        <linearGradient id="sw-gradient" x1="0" x2="1" y1="1" y2="0">
                            <stop id="stop1" stop-color="rgba(9.474, 70.836, 222.111, 1)" offset="0%"></stop>
                            <stop id="stop2" stop-color="rgba(169.804, 188.84, 235.772, 1)" offset="100%"></stop>
                        </linearGradient>
                    </defs>
                <path fill="url(#sw-gradient)" d="M15.5,-22.5C18.3,-19.3,17.5,-12.3,20.1,-6.1C22.8,0.1,28.8,5.7,27.7,9C26.6,12.3,18.5,13.3,12.7,14.5C6.9,15.8,3.4,17.4,-2.9,21.4C-9.3,25.5,-18.7,32,-24.7,30.8C-30.7,29.6,-33.3,20.6,-32.3,13C-31.3,5.4,-26.7,-0.9,-23.2,-6.4C-19.8,-11.9,-17.6,-16.5,-14,-19.5C-10.3,-22.5,-5.1,-23.7,0.6,-24.5C6.3,-25.4,12.7,-25.8,15.5,-22.5Z" width="100%" height="100%" transform="translate(50 50)" stroke-width="0" style="transition: 0.3s;"></path>
              </svg>