<!--?xml version="1.0" standalone="no"?-->
              <svg id="sw-js-blob-svg" viewBox="0 0 100 100" xmlns="http://www.w3.org/2000/svg" version="1.1">
                    <defs> 
                        <linearGradient id="sw-gradient" x1="0" x2="1" y1="1" y2="0">
                            <stop id="stop1" stop-color="rgba(244.879, 244.358, 244.112, 1)" offset="0%"></stop>
                            <stop id="stop2" stop-color="rgba(244.879, 244.879, 244.879, 1)" offset="100%"></stop>
                        </linearGradient>
                    </defs>
                <path fill="url(#sw-gradient)" d="M20.7,-21.8C26.8,-19.5,31.7,-13,30.8,-7.1C29.9,-1.1,23.2,4.2,18.7,9.6C14.2,15,11.8,20.5,6.2,26.7C0.6,32.9,-8.2,39.8,-15.5,38.8C-22.9,37.8,-28.8,28.9,-30.8,20.3C-32.8,11.6,-31,3.2,-29.1,-4.8C-27.3,-12.8,-25.4,-20.4,-20.5,-22.8C-15.6,-25.3,-7.8,-22.6,-0.3,-22.3C7.3,-22,14.6,-24.1,20.7,-21.8Z" width="100%" height="100%" transform="translate(50 50)" stroke-width="0" style="transition: 0.3s;"></path>
              </svg>