
              <svg id="sw-js-blob-svg" viewBox="0 0 100 100" xmlns="http://www.w3.org/2000/svg" version="1.1">
                    <defs> 
                        <linearGradient id="sw-gradient" x1="0" x2="1" y1="1" y2="0">
                            <stop id="stop1" stop-color="rgba(249.433, 249.433, 249.433, 1)" offset="0%"></stop>
                            <stop id="stop2" stop-color="rgba(244.879, 244.879, 244.879, 1)" offset="100%"></stop>
                        </linearGradient>
                    </defs>
                <path fill="url(#sw-gradient)" d="M18.7,-23.3C24.8,-17.2,30.6,-11.8,32.6,-5.1C34.5,1.6,32.7,9.7,28.5,16C24.3,22.3,17.8,26.7,10.8,29.1C3.7,31.4,-3.9,31.6,-12.8,30.4C-21.6,29.2,-31.7,26.6,-35.7,20.3C-39.7,14,-37.7,3.8,-36.1,-6.5C-34.4,-16.8,-33.1,-27.3,-27.1,-33.5C-21.2,-39.7,-10.6,-41.5,-2.1,-38.9C6.3,-36.4,12.6,-29.5,18.7,-23.3Z" width="100%" height="100%" transform="translate(50 50)" stroke-width="0" style="transition: 0.3s;"></path>
              </svg>